<svg id="uuid-1fd54cab-d870-4898-a557-bc9f6fb6a1cb" data-name="Layer 2" xmlns="http://www.w3.org/2000/svg" viewBox="104.38 104.38 846.24 316.56">   <g id="uuid-c78b5253-7df5-45b6-b9ec-4f0e0f3d6257" data-name="Brand">     <g>       <g>         <path d="M367.76757,420.94623H118.48076l46.34704-115.37092-60.44522-26.59155v-84.07415l204.06774-90.52703h16.55381l85.69832,215.11314-7.9434,18.77768-34.99148,82.67284ZM173.15153,383.99153h170.12836l11.32731-26.76267-35.08767,16.39983-120.84758-53.16406-25.52041,63.5269ZM212.45456,286.15508l106.60305,46.89721,48.27694-22.56382-64.93456-162.99418-41.66754,18.48434-48.27789,120.17645ZM141.33728,254.86815l37.27345,16.39793,33.66001-83.78906-70.93346,31.46693v35.9242Z" fill="#0070ff"/>         <g>           <path d="M592.24666,270.89416c-.5608-.22747-1.16888-.39402-1.74864-.59687,3.96527-2.06388,7.13894-4.72179,9.41576-8.05498,2.62431-3.84439,3.93893-8.29932,3.93893-13.36478,0-7.59622-3.18955-13.78625-9.56667-18.57008-6.37811-4.78186-16.0856-7.17279-29.11951-7.17279h-50.0815v98.4732h52.89488c13.31555,0,23.42284-2.39093,30.31596-7.17476,6.89312-4.78186,10.33969-11.39532,10.33969-19.83447,0-5.62873-1.43082-10.45785-4.29048-14.49132-2.86262-4.03149-6.89312-7.10386-12.09842-9.21315ZM561.64906,243.25076c4.68831,0,8.20577.774,10.5514,2.32003,2.34268,1.548,3.51648,3.96453,3.51648,7.24566,0,3.096-1.1738,5.43966-3.51648,7.03493-2.34563,1.59527-5.86309,2.39093-10.5514,2.39093h-19.13236v-18.99154h19.13236ZM576.84249,299.02992c-2.44017,1.64056-6.09746,2.46183-10.97287,2.46183h-23.35292v-19.97627h23.35292c4.87541,0,8.5327.82127,10.97287,2.46183,2.43721,1.64056,3.65729,4.14966,3.65729,7.52532s-1.22008,5.88673-3.65729,7.52729Z"/>           <polygon points="651.11984 223.13465 623.26571 223.13465 623.26571 321.60785 697.96551 321.60785 697.96551 299.52228 651.11984 299.52228 651.11984 223.13465"/>           <rect x="706.54253" y="271.10489" width="41.0781" height="20.67937"/>           <polygon points="852.84613 223.13465 822.88172 223.13465 803.43265 251.6243 783.77309 223.13465 752.40248 223.13465 786.75609 271.62729 750.85449 321.60785 782.64754 321.60785 802.74531 291.14172 823.16336 321.60785 855.23706 321.60785 818.69637 270.68724 852.84613 223.13465"/>           <path d="M945.343,240.08583c-3.51746-5.48693-8.55929-9.68385-15.12351-12.59078-6.56521-2.90693-14.34853-4.36039-23.35193-4.36039h-44.87621v98.4732h27.85413v-25.74483h17.02208c9.0034,0,16.78673-1.4771,23.35193-4.43129,6.56422-2.9542,11.60605-7.12552,15.12351-12.51988,3.51648-5.39239,5.27521-11.88768,5.27521-19.48391,0-7.40715-1.75873-13.85715-5.27521-19.34211ZM918.26188,270.04925c-2.90791,2.48546-7.26831,3.7282-13.08216,3.7282h-15.33425v-28.69903h15.33425c5.81386,0,10.17425,1.29197,13.08216,3.87,2.90594,2.58,4.36138,6.07383,4.36138,10.47952,0,4.59673-1.45543,8.13783-4.36138,10.62132Z"/>         </g>       </g>       <rect width="1055.00078" height="525.32881" fill="none"/>     </g>   </g> </svg>