<svg id="visual" viewBox="0 0 960 540" width="960" height="540" xmlns="http://www.w3.org/2000/svg" xmlns:xlink="http://www.w3.org/1999/xlink" version="1.1"><g stroke-width="1" stroke-linejoin="bevel"><path d="M509.9 237L479.9 179.5L412.1 232Z" fill="#344556" stroke="#344556"></path><path d="M515.9 98L477.1 164.5L587.8 158.5Z" fill="#007fff" stroke="#007fff"></path><path d="M479.9 179.5L477.1 164.5L412.1 232Z" fill="#314c66" stroke="#314c66"></path><path d="M477.1 164.5L367.2 172.5L412.1 232Z" fill="#255987" stroke="#255987"></path><path d="M412.1 232L492.1 334.5L509.9 237Z" fill="#1b5f98" stroke="#1b5f98"></path><path d="M340.4 251L380.2 314L412.1 232Z" fill="#2c5276" stroke="#2c5276"></path><path d="M412.1 232L380.2 314L492.1 334.5Z" fill="#007aee" stroke="#007aee"></path><path d="M492.1 334.5L549.8 307.5L509.9 237Z" fill="#006bba" stroke="#006bba"></path><path d="M515.9 98L455.1 102L477.1 164.5Z" fill="#255987" stroke="#255987"></path><path d="M367.2 172.5L340.4 251L412.1 232Z" fill="#1b5f98" stroke="#1b5f98"></path><path d="M477.1 164.5L479.9 179.5L587.8 158.5Z" fill="#314c66" stroke="#314c66"></path><path d="M477.1 164.5L455.1 102L367.2 172.5Z" fill="#0070cc" stroke="#0070cc"></path><path d="M587.8 158.5L479.9 179.5L509.9 237Z" fill="#1b5f98" stroke="#1b5f98"></path><path d="M624.8 264L587.8 158.5L509.9 237Z" fill="#006bba" stroke="#006bba"></path><path d="M471.9 389L512.9 361.5L492.1 334.5Z" fill="#007aee" stroke="#007aee"></path><path d="M492.1 334.5L512.9 361.5L549.8 307.5Z" fill="#0076dd" stroke="#0076dd"></path><path d="M367.2 172.5L301.4 235.5L340.4 251Z" fill="#007aee" stroke="#007aee"></path><path d="M340.4 251L317.2 302.5L380.2 314Z" fill="#0076dd" stroke="#0076dd"></path><path d="M301.4 235.5L317.2 302.5L340.4 251Z" fill="#006bba" stroke="#006bba"></path><path d="M380.2 314L471.9 389L492.1 334.5Z" fill="#007fff" stroke="#007fff"></path><path d="M449.1 428L471.9 389L385.2 424.5Z" fill="#314c66" stroke="#314c66"></path><path d="M640.6 352.5L624.8 264L549.8 307.5Z" fill="#255987" stroke="#255987"></path><path d="M549.8 307.5L624.8 264L509.9 237Z" fill="#314c66" stroke="#314c66"></path><path d="M515.9 98L461.1 56.5L455.1 102Z" fill="#0070cc" stroke="#0070cc"></path><path d="M455.1 102L340.2 93L367.2 172.5Z" fill="#344556" stroke="#344556"></path><path d="M367.2 172.5L322.4 89.5L301.4 235.5Z" fill="#0d65a9" stroke="#0d65a9"></path><path d="M679.6 114L601.8 117L587.8 158.5Z" fill="#314c66" stroke="#314c66"></path><path d="M587.8 158.5L601.8 117L515.9 98Z" fill="#255987" stroke="#255987"></path><path d="M515.9 98L477.9 46.5L461.1 56.5Z" fill="#314c66" stroke="#314c66"></path><path d="M340.4 82L340.2 93L455.1 102Z" fill="#255987" stroke="#255987"></path><path d="M547.9 0L477.9 46.5L515.9 98Z" fill="#344556" stroke="#344556"></path><path d="M353.2 37.5L340.4 82L455.1 102Z" fill="#0076dd" stroke="#0076dd"></path><path d="M353.2 37.5L455.1 102L461.1 56.5Z" fill="#0070cc" stroke="#0070cc"></path><path d="M340.2 93L322.4 89.5L367.2 172.5Z" fill="#255987" stroke="#255987"></path><path d="M601.8 117L596.8 88.5L515.9 98Z" fill="#2c5276" stroke="#2c5276"></path><path d="M340.4 82L322.4 89.5L340.2 93Z" fill="#255987" stroke="#255987"></path><path d="M471.9 389L492.1 421.5L512.9 361.5Z" fill="#314c66" stroke="#314c66"></path><path d="M599.8 397L640.6 352.5L549.8 307.5Z" fill="#006bba" stroke="#006bba"></path><path d="M449.1 428L492.1 421.5L471.9 389Z" fill="#0d65a9" stroke="#0d65a9"></path><path d="M679.6 114L614.6 94.5L601.8 117Z" fill="#344556" stroke="#344556"></path><path d="M601.8 117L614.6 94.5L596.8 88.5Z" fill="#1b5f98" stroke="#1b5f98"></path><path d="M547.9 0L419.1 0L477.9 46.5Z" fill="#1b5f98" stroke="#1b5f98"></path><path d="M385.2 424.5L471.9 389L380.2 314Z" fill="#2c5276" stroke="#2c5276"></path><path d="M317.2 302.5L385.2 424.5L380.2 314Z" fill="#006bba" stroke="#006bba"></path><path d="M419.1 0L353.2 37.5L461.1 56.5Z" fill="#0d65a9" stroke="#0d65a9"></path><path d="M340.4 82L353.2 37.5L322.4 89.5Z" fill="#007fff" stroke="#007fff"></path><path d="M599.8 397L549.8 307.5L512.9 361.5Z" fill="#2c5276" stroke="#2c5276"></path><path d="M624.8 264L693.6 250.5L587.8 158.5Z" fill="#314c66" stroke="#314c66"></path><path d="M492.1 421.5L599.8 397L512.9 361.5Z" fill="#314c66" stroke="#314c66"></path><path d="M245.4 292.5L269.5 334.5L317.2 302.5Z" fill="#314c66" stroke="#314c66"></path><path d="M317.2 302.5L269.5 334.5L385.2 424.5Z" fill="#007fff" stroke="#007fff"></path><path d="M245.4 292.5L317.2 302.5L301.4 235.5Z" fill="#344556" stroke="#344556"></path><path d="M218.5 257L245.4 292.5L301.4 235.5Z" fill="#0070cc" stroke="#0070cc"></path><path d="M547.9 0L515.9 98L552.8 0Z" fill="#314c66" stroke="#314c66"></path><path d="M477.9 46.5L419.1 0L461.1 56.5Z" fill="#007fff" stroke="#007fff"></path><path d="M286.4 447L373.2 441L385.2 424.5Z" fill="#344556" stroke="#344556"></path><path d="M385.2 424.5L373.2 441L449.1 428Z" fill="#0076dd" stroke="#0076dd"></path><path d="M449.1 428L489.9 470.5L492.1 421.5Z" fill="#255987" stroke="#255987"></path><path d="M698.5 296.5L693.6 250.5L624.8 264Z" fill="#1b5f98" stroke="#1b5f98"></path><path d="M552.8 0L515.9 98L596.8 88.5Z" fill="#2c5276" stroke="#2c5276"></path><path d="M616.6 0L552.8 0L596.8 88.5Z" fill="#006bba" stroke="#006bba"></path><path d="M195.5 203.5L218.5 257L301.4 235.5Z" fill="#007aee" stroke="#007aee"></path><path d="M231.5 404L286.4 447L269.5 334.5Z" fill="#344556" stroke="#344556"></path><path d="M195.5 203.5L301.4 235.5L192.7 137Z" fill="#0070cc" stroke="#0070cc"></path><path d="M693.6 250.5L679.6 114L587.8 158.5Z" fill="#2c5276" stroke="#2c5276"></path><path d="M614.6 94.5L616.6 0L596.8 88.5Z" fill="#0d65a9" stroke="#0d65a9"></path><path d="M405.1 540L489.9 470.5L449.1 428Z" fill="#1b5f98" stroke="#1b5f98"></path><path d="M492.1 421.5L489.9 470.5L599.8 397Z" fill="#007aee" stroke="#007aee"></path><path d="M640.6 352.5L698.5 296.5L624.8 264Z" fill="#255987" stroke="#255987"></path><path d="M693.6 250.5L746.5 192.5L679.6 114Z" fill="#0076dd" stroke="#0076dd"></path><path d="M700.6 304L698.5 296.5L640.6 352.5Z" fill="#0d65a9" stroke="#0d65a9"></path><path d="M419.1 0L352.2 0L353.2 37.5Z" fill="#007aee" stroke="#007aee"></path><path d="M353.2 37.5L286.4 0L322.4 89.5Z" fill="#255987" stroke="#255987"></path><path d="M663.6 422L700.6 304L640.6 352.5Z" fill="#344556" stroke="#344556"></path><path d="M698.5 296.5L712.5 265L693.6 250.5Z" fill="#314c66" stroke="#314c66"></path><path d="M700.6 304L712.5 265L698.5 296.5Z" fill="#0076dd" stroke="#0076dd"></path><path d="M634.8 504.5L633.6 426.5L599.8 397Z" fill="#314c66" stroke="#314c66"></path><path d="M599.8 397L633.6 426.5L640.6 352.5Z" fill="#007aee" stroke="#007aee"></path><path d="M192.7 137L301.4 235.5L322.4 89.5Z" fill="#314c66" stroke="#314c66"></path><path d="M714.5 64.5L616.6 0L614.6 94.5Z" fill="#2c5276" stroke="#2c5276"></path><path d="M634.8 504.5L663.6 422L633.6 426.5Z" fill="#0d65a9" stroke="#0d65a9"></path><path d="M633.6 426.5L663.6 422L640.6 352.5Z" fill="#007aee" stroke="#007aee"></path><path d="M231.5 404L269.5 334.5L166.7 375.5Z" fill="#0d65a9" stroke="#0d65a9"></path><path d="M269.5 334.5L286.4 447L385.2 424.5Z" fill="#006bba" stroke="#006bba"></path><path d="M405.1 540L504.9 540L489.9 470.5Z" fill="#255987" stroke="#255987"></path><path d="M269.5 334.5L245.4 292.5L166.7 375.5Z" fill="#1b5f98" stroke="#1b5f98"></path><path d="M189.5 94.5L192.7 137L322.4 89.5Z" fill="#344556" stroke="#344556"></path><path d="M352.2 0L286.4 0L353.2 37.5Z" fill="#007aee" stroke="#007aee"></path><path d="M773.5 361L712.5 265L700.6 304Z" fill="#255987" stroke="#255987"></path><path d="M846.3 241L746.5 192.5L712.5 265Z" fill="#1b5f98" stroke="#1b5f98"></path><path d="M712.5 265L746.5 192.5L693.6 250.5Z" fill="#0d65a9" stroke="#0d65a9"></path><path d="M679.6 114L714.5 64.5L614.6 94.5Z" fill="#006bba" stroke="#006bba"></path><path d="M166.7 375.5L245.4 292.5L130.7 293Z" fill="#255987" stroke="#255987"></path><path d="M192.7 137L181.5 130L195.5 203.5Z" fill="#0076dd" stroke="#0076dd"></path><path d="M130.7 293L245.4 292.5L218.5 257Z" fill="#0070cc" stroke="#0070cc"></path><path d="M189.5 94.5L181.5 130L192.7 137Z" fill="#1b5f98" stroke="#1b5f98"></path><path d="M231.5 404L253.5 439.5L286.4 447Z" fill="#2c5276" stroke="#2c5276"></path><path d="M752.5 100L714.5 64.5L679.6 114Z" fill="#007fff" stroke="#007fff"></path><path d="M193.7 71.5L189.5 94.5L322.4 89.5Z" fill="#255987" stroke="#255987"></path><path d="M248.5 0L193.7 71.5L322.4 89.5Z" fill="#255987" stroke="#255987"></path><path d="M108.8 105L116.8 154.5L181.5 130Z" fill="#006bba" stroke="#006bba"></path><path d="M286.4 0L248.5 0L322.4 89.5Z" fill="#344556" stroke="#344556"></path><path d="M746.5 192.5L752.5 100L679.6 114Z" fill="#0070cc" stroke="#0070cc"></path><path d="M405.1 540L449.1 428L373.2 441Z" fill="#2c5276" stroke="#2c5276"></path><path d="M489.9 470.5L634.8 504.5L599.8 397Z" fill="#255987" stroke="#255987"></path><path d="M405.1 540L373.2 441L345.4 540Z" fill="#1b5f98" stroke="#1b5f98"></path><path d="M345.4 540L373.2 441L326.2 540Z" fill="#255987" stroke="#255987"></path><path d="M231.5 404L244.4 467.5L253.5 439.5Z" fill="#2c5276" stroke="#2c5276"></path><path d="M253.5 439.5L244.4 467.5L286.4 447Z" fill="#0076dd" stroke="#0076dd"></path><path d="M614.8 540L634.8 504.5L489.9 470.5Z" fill="#0076dd" stroke="#0076dd"></path><path d="M663.6 422L773.5 361L700.6 304Z" fill="#314c66" stroke="#314c66"></path><path d="M130.7 293L218.5 257L195.5 203.5Z" fill="#1b5f98" stroke="#1b5f98"></path><path d="M231.5 404L157.7 485.5L244.4 467.5Z" fill="#344556" stroke="#344556"></path><path d="M781.3 102L764.3 90.5L752.5 100Z" fill="#007aee" stroke="#007aee"></path><path d="M752.5 100L764.3 90.5L714.5 64.5Z" fill="#1b5f98" stroke="#1b5f98"></path><path d="M714.5 64.5L748.5 0L616.6 0Z" fill="#1b5f98" stroke="#1b5f98"></path><path d="M326.2 540L373.2 441L286.4 447Z" fill="#255987" stroke="#255987"></path><path d="M116.8 154.5L195.5 203.5L181.5 130Z" fill="#255987" stroke="#255987"></path><path d="M103.8 251L130.7 293L195.5 203.5Z" fill="#007aee" stroke="#007aee"></path><path d="M733.5 449.5L773.5 361L663.6 422Z" fill="#006bba" stroke="#006bba"></path><path d="M746.5 192.5L794.3 149.5L752.5 100Z" fill="#0076dd" stroke="#0076dd"></path><path d="M838.2 152L794.3 149.5L846.3 241Z" fill="#314c66" stroke="#314c66"></path><path d="M244.4 467.5L326.2 540L286.4 447Z" fill="#006bba" stroke="#006bba"></path><path d="M794.3 149.5L781.3 102L752.5 100Z" fill="#0076dd" stroke="#0076dd"></path><path d="M504.9 540L614.8 540L489.9 470.5Z" fill="#2c5276" stroke="#2c5276"></path><path d="M634.8 504.5L733.5 449.5L663.6 422Z" fill="#2c5276" stroke="#2c5276"></path><path d="M95.7 162.5L116.8 154.5L108.8 105Z" fill="#006bba" stroke="#006bba"></path><path d="M108.8 105L181.5 130L189.5 94.5Z" fill="#314c66" stroke="#314c66"></path><path d="M713.5 540L733.5 449.5L634.8 504.5Z" fill="#0d65a9" stroke="#0d65a9"></path><path d="M116.8 154.5L103.8 251L195.5 203.5Z" fill="#1b5f98" stroke="#1b5f98"></path><path d="M89.8 370L127.7 409L166.7 375.5Z" fill="#1b5f98" stroke="#1b5f98"></path><path d="M844.2 0L748.5 0L764.3 90.5Z" fill="#007aee" stroke="#007aee"></path><path d="M764.3 90.5L748.5 0L714.5 64.5Z" fill="#007fff" stroke="#007fff"></path><path d="M614.8 540L647.6 540L634.8 504.5Z" fill="#007aee" stroke="#007aee"></path><path d="M108.8 105L189.5 94.5L193.7 71.5Z" fill="#1b5f98" stroke="#1b5f98"></path><path d="M116.8 154.5L95.7 162.5L103.8 251Z" fill="#0070cc" stroke="#0070cc"></path><path d="M105.8 0L108.8 105L193.7 71.5Z" fill="#314c66" stroke="#314c66"></path><path d="M166.7 375.5L127.7 409L231.5 404Z" fill="#0070cc" stroke="#0070cc"></path><path d="M244.4 467.5L199.5 540L326.2 540Z" fill="#2c5276" stroke="#2c5276"></path><path d="M89.8 370L166.7 375.5L130.7 293Z" fill="#2c5276" stroke="#2c5276"></path><path d="M794.3 149.5L838.2 152L781.3 102Z" fill="#007fff" stroke="#007fff"></path><path d="M781.3 102L844.2 0L764.3 90.5Z" fill="#344556" stroke="#344556"></path><path d="M846.3 241L794.3 149.5L746.5 192.5Z" fill="#0076dd" stroke="#0076dd"></path><path d="M855.2 281L712.5 265L773.5 361Z" fill="#0076dd" stroke="#0076dd"></path><path d="M855.2 281L846.3 241L712.5 265Z" fill="#1b5f98" stroke="#1b5f98"></path><path d="M765.3 540L807.3 421.5L733.5 449.5Z" fill="#255987" stroke="#255987"></path><path d="M733.5 449.5L807.3 421.5L773.5 361Z" fill="#2c5276" stroke="#2c5276"></path><path d="M853.3 371.5L855.2 281L773.5 361Z" fill="#344556" stroke="#344556"></path><path d="M960 134L864.2 86.5L838.2 152Z" fill="#006bba" stroke="#006bba"></path><path d="M89.8 370L130.7 293L0 310Z" fill="#007aee" stroke="#007aee"></path><path d="M35.8 367.5L89.8 370L0 310Z" fill="#007fff" stroke="#007fff"></path><path d="M104.7 540L157.7 485.5L76.8 519.5Z" fill="#314c66" stroke="#314c66"></path><path d="M127.7 409L157.7 485.5L231.5 404Z" fill="#1b5f98" stroke="#1b5f98"></path><path d="M647.6 540L713.5 540L634.8 504.5Z" fill="#1b5f98" stroke="#1b5f98"></path><path d="M157.7 485.5L199.5 540L244.4 467.5Z" fill="#007fff" stroke="#007fff"></path><path d="M807.3 421.5L853.3 371.5L773.5 361Z" fill="#1b5f98" stroke="#1b5f98"></path><path d="M848.3 434L853.3 371.5L807.3 421.5Z" fill="#0076dd" stroke="#0076dd"></path><path d="M248.5 0L105.8 0L193.7 71.5Z" fill="#344556" stroke="#344556"></path><path d="M108.8 105L0 124L95.7 162.5Z" fill="#255987" stroke="#255987"></path><path d="M105.8 0L101.7 0L108.8 105Z" fill="#0070cc" stroke="#0070cc"></path><path d="M919.2 227.5L838.2 152L846.3 241Z" fill="#0076dd" stroke="#0076dd"></path><path d="M838.2 152L864.2 86.5L781.3 102Z" fill="#314c66" stroke="#314c66"></path><path d="M919.2 227.5L846.3 241L855.2 281Z" fill="#007aee" stroke="#007aee"></path><path d="M713.5 540L765.3 540L733.5 449.5Z" fill="#0d65a9" stroke="#0d65a9"></path><path d="M838.2 540L848.3 434L807.3 421.5Z" fill="#0070cc" stroke="#0070cc"></path><path d="M864.2 86.5L844.2 0L781.3 102Z" fill="#1b5f98" stroke="#1b5f98"></path><path d="M864.2 86.5L847.3 0L844.2 0Z" fill="#007fff" stroke="#007fff"></path><path d="M0 310L130.7 293L103.8 251Z" fill="#255987" stroke="#255987"></path><path d="M89.8 370L0 472.5L127.7 409Z" fill="#006bba" stroke="#006bba"></path><path d="M157.7 485.5L104.7 540L199.5 540Z" fill="#255987" stroke="#255987"></path><path d="M0 252.5L103.8 251L95.7 162.5Z" fill="#0076dd" stroke="#0076dd"></path><path d="M929.2 324.5L855.2 281L853.3 371.5Z" fill="#314c66" stroke="#314c66"></path><path d="M929.2 324.5L919.2 227.5L855.2 281Z" fill="#0076dd" stroke="#0076dd"></path><path d="M864.2 86.5L960 52.5L847.3 0Z" fill="#255987" stroke="#255987"></path><path d="M848.3 434L886.2 401L853.3 371.5Z" fill="#2c5276" stroke="#2c5276"></path><path d="M915.2 427.5L886.2 401L848.3 434Z" fill="#007aee" stroke="#007aee"></path><path d="M101.7 0L35.8 46.5L108.8 105Z" fill="#007aee" stroke="#007aee"></path><path d="M0 124L0 252.5L95.7 162.5Z" fill="#0076dd" stroke="#0076dd"></path><path d="M0 252.5L0 310L103.8 251Z" fill="#0070cc" stroke="#0070cc"></path><path d="M35.8 46.5L0 124L108.8 105Z" fill="#2c5276" stroke="#2c5276"></path><path d="M76.8 519.5L127.7 409L0 472.5Z" fill="#0d65a9" stroke="#0d65a9"></path><path d="M76.8 519.5L157.7 485.5L127.7 409Z" fill="#0076dd" stroke="#0076dd"></path><path d="M886.2 401L929.2 324.5L853.3 371.5Z" fill="#007aee" stroke="#007aee"></path><path d="M0 472.5L89.8 370L35.8 367.5Z" fill="#0070cc" stroke="#0070cc"></path><path d="M0 310L0 382L35.8 367.5Z" fill="#006bba" stroke="#006bba"></path><path d="M0 382L0 388.5L35.8 367.5Z" fill="#0d65a9" stroke="#0d65a9"></path><path d="M765.3 540L838.2 540L807.3 421.5Z" fill="#006bba" stroke="#006bba"></path><path d="M960 361L960 353.5L929.2 324.5Z" fill="#0076dd" stroke="#0076dd"></path><path d="M838.2 540L915.2 427.5L848.3 434Z" fill="#255987" stroke="#255987"></path><path d="M960 353.5L960 237L929.2 324.5Z" fill="#2c5276" stroke="#2c5276"></path><path d="M929.2 324.5L960 237L919.2 227.5Z" fill="#314c66" stroke="#314c66"></path><path d="M919.2 227.5L960 185.5L838.2 152Z" fill="#255987" stroke="#255987"></path><path d="M960 237L960 185.5L919.2 227.5Z" fill="#0d65a9" stroke="#0d65a9"></path><path d="M0 0L0 31.5L35.8 46.5Z" fill="#1b5f98" stroke="#1b5f98"></path><path d="M35.8 46.5L0 31.5L0 124Z" fill="#0d65a9" stroke="#0d65a9"></path><path d="M0 540L69.8 540L76.8 519.5Z" fill="#007fff" stroke="#007fff"></path><path d="M76.8 519.5L69.8 540L104.7 540Z" fill="#1b5f98" stroke="#1b5f98"></path><path d="M960 185.5L960 134L838.2 152Z" fill="#0076dd" stroke="#0076dd"></path><path d="M101.7 0L0 0L35.8 46.5Z" fill="#0076dd" stroke="#0076dd"></path><path d="M960 361L929.2 324.5L886.2 401Z" fill="#0076dd" stroke="#0076dd"></path><path d="M915.2 427.5L960 361L886.2 401Z" fill="#007aee" stroke="#007aee"></path><path d="M0 388.5L0 472.5L35.8 367.5Z" fill="#314c66" stroke="#314c66"></path><path d="M960 134L960 52.5L864.2 86.5Z" fill="#0076dd" stroke="#0076dd"></path><path d="M960 540L960 435.5L915.2 427.5Z" fill="#2c5276" stroke="#2c5276"></path><path d="M915.2 427.5L960 435.5L960 361Z" fill="#2c5276" stroke="#2c5276"></path><path d="M960 52.5L960 0L847.3 0Z" fill="#344556" stroke="#344556"></path><path d="M0 472.5L0 540L76.8 519.5Z" fill="#2c5276" stroke="#2c5276"></path><path d="M838.2 540L960 540L915.2 427.5Z" fill="#0d65a9" stroke="#0d65a9"></path></g></svg>